HIERARCHY
ROOT SpineBase
{
  OFFSET 0.000000 0.000000 0.000000
  CHANNELS 6 Xposition Yposition Zposition Zrotation Xrotation Yrotation
  JOINT SpineMid
  {
    OFFSET 0.000000 34.474100 0.000000
    CHANNELS 3 Zrotation Xrotation Yrotation
    JOINT SpineShoulder
    {
      OFFSET -0.292969 25.578247 -0.727295
      CHANNELS 3 Zrotation Xrotation Yrotation
      JOINT Neck
      {
        OFFSET -0.131187 8.451483 -0.562897
        CHANNELS 3 Zrotation Xrotation Yrotation
        JOINT Head
        {
          OFFSET 7.052200 10.430462 5.982612
          CHANNELS 3 Zrotation Xrotation Yrotation
          End Site
          {
            OFFSET 0 0 0
          }
        }
      }
      JOINT ShoulderLeft
      {
        OFFSET -11.341228 -5.949464 -2.202550
        CHANNELS 3 Zrotation Xrotation Yrotation
        JOINT ElbowLeft
        {
          OFFSET -6.382809 -26.545689 1.272558
          CHANNELS 3 Zrotation Xrotation Yrotation
          JOINT WristLeft
          {
            OFFSET 5.381344 -18.858611 -6.458046
            CHANNELS 3 Zrotation Xrotation Yrotation
            JOINT HandLeft
            {
              OFFSET 3.654026 -5.744152 2.997323
              CHANNELS 3 Zrotation Xrotation Yrotation
              JOINT HandTipLeft
              {
                OFFSET 1.574633 -7.544603 4.164081
                CHANNELS 3 Zrotation Xrotation Yrotation
                End Site
                {
                  OFFSET 0 0 0
                }
              }
              JOINT ThumbLeft
              {
                OFFSET 3.986545 2.495460 -7.770464
                CHANNELS 3 Zrotation Xrotation Yrotation
                End Site
                {
                  OFFSET 0 0 0
                }
              }
            }
          }
        }
      }
      JOINT ShoulderRight
      {
        OFFSET 9.332613 -8.363930 -13.433176
        CHANNELS 3 Zrotation Xrotation Yrotation
        JOINT ElbowRight
        {
          OFFSET 8.360960 -21.448852 -1.969277
          CHANNELS 3 Zrotation Xrotation Yrotation
          JOINT WristRight
          {
            OFFSET 9.230899 -12.787908 11.531871
            CHANNELS 3 Zrotation Xrotation Yrotation
            JOINT HandRight
            {
              OFFSET -2.800269 -5.865147 7.110534
              CHANNELS 3 Zrotation Xrotation Yrotation
              JOINT HandTipRight
              {
                OFFSET 0.310762 -1.345515 0.782391
                CHANNELS 3 Zrotation Xrotation Yrotation
                End Site
                {
                  OFFSET 0 0 0
                }
              }
              JOINT ThumbRight
              {
                OFFSET -0.419042 1.300842 -3.295421
                CHANNELS 3 Zrotation Xrotation Yrotation
                End Site
                {
                  OFFSET 0 0 0
                }
              }
            }
          }
        }
      }
    }
  }
  JOINT HipLeft
  {
    OFFSET -7.028469 0.212488 0.993626
    CHANNELS 3 Zrotation Xrotation Yrotation
    JOINT KneeLeft
    {
      OFFSET -1.021606 -30.381081 4.550986
      CHANNELS 3 Zrotation Xrotation Yrotation
      JOINT AnkleLeft
      {
        OFFSET -2.331292 -32.899444 -0.122214
        CHANNELS 3 Zrotation Xrotation Yrotation
        JOINT FootLeft
        {
          OFFSET -4.383887 -3.311284 -12.236095
          CHANNELS 3 Zrotation Xrotation Yrotation
          End Site
          {
            OFFSET 0 0 0
          }
        }
      }
    }
  }
  JOINT HipRight
  {
    OFFSET 6.992137 1.677806 -7.879674
    CHANNELS 3 Zrotation Xrotation Yrotation
    JOINT KneeRight
    {
      OFFSET 6.536504 -29.065949 -4.252333
      CHANNELS 3 Zrotation Xrotation Yrotation
      JOINT AnkleRight
      {
        OFFSET 2.236541 -35.443431 -2.313432
        CHANNELS 3 Zrotation Xrotation Yrotation
        JOINT FootRight
        {
          OFFSET -3.595616 -3.688216 -10.758877
          CHANNELS 3 Zrotation Xrotation Yrotation
          End Site
          {
            OFFSET 0 0 0
          }
        }
      }
    }
  }
}
MOTION
Frames: 6
Frame Time: 0.033333
0.073066 67.679827 311.205935 -0.000000 0.000000 32.328724 0.000000 0.000000 -32.328724 -0.000000 0.000000 0.000000 -0.000000 0.000000 0.000000 0.000000 0.000000 0.000000 -0.000000 0.000000 0.000000 -0.000000 0.000000 0.000000 -0.000000 0.000000 0.000000 -0.000000 0.000000 0.000000 0.000000 0.000000 0.000000 0.000000 0.000000 0.000000 -0.000000 0.000000 0.000000 -0.000000 0.000000 0.000000 -0.000000 0.000000 0.000000 -0.000000 0.000000 0.000000 0.000000 0.000000 0.000000 0.000000 0.000000 0.000000 0.000000 0.000000 -32.328724 -0.000000 0.000000 0.000000 -0.000000 0.000000 0.000000 0.000000 0.000000 0.000000 0.000000 0.000000 -32.328724 -0.000000 0.000000 0.000000 -0.000000 0.000000 0.000000 0.000000 0.000000 0.000000
0.013855 67.692416 311.256832 0.075646 -0.013062 32.658098 -0.056638 0.051818 -32.658064 -0.000000 0.000000 0.000000 -1.879199 -0.090833 1.125866 0.000000 0.000000 0.000000 -0.000000 0.000000 0.000000 -0.000000 0.000000 0.000000 -0.000000 0.000000 0.000000 -0.000000 0.000000 0.000000 0.000000 0.000000 0.000000 0.000000 0.000000 0.000000 -0.000000 0.000000 0.000000 -0.000000 0.000000 0.000000 -3.404844 -2.248692 -3.007177 0.998806 5.412378 2.498266 0.000000 0.000000 0.000000 0.000000 0.000000 0.000000 -0.056638 0.051818 -32.658064 -0.000000 0.000000 0.000000 -0.000000 0.000000 0.000000 0.000000 0.000000 0.000000 -0.056638 0.051818 -32.658064 -0.000000 0.000000 0.000000 -1.886129 3.197522 2.220393 0.000000 0.000000 0.000000
-0.027193 67.704768 311.298416 0.148025 -0.025209 32.920519 -0.110556 0.101609 -32.920388 -0.000000 0.000000 0.000000 -3.447655 -0.343466 2.159470 0.000000 0.000000 0.000000 -0.000000 0.000000 0.000000 -0.711610 -0.502281 0.097563 1.487583 0.002789 -0.018894 -0.775256 0.497986 -0.084942 0.000000 0.000000 0.000000 0.000000 0.000000 0.000000 -0.000000 0.000000 0.000000 -0.000000 0.000000 0.000000 -5.473877 -3.633877 -4.783376 0.508610 9.188445 3.748318 0.000000 0.000000 0.000000 0.000000 0.000000 0.000000 -0.248046 1.218346 -33.056144 0.724432 -0.860953 0.142783 -0.000000 0.000000 0.000000 0.000000 0.000000 0.000000 -0.110556 0.101609 -32.920388 -0.000000 0.000000 0.000000 -3.040414 4.994661 3.581827 0.000000 0.000000 0.000000
-0.050078 67.716882 311.330689 0.217191 -0.036449 33.115696 -0.162000 0.149186 -33.115416 -0.000000 0.000000 0.000000 -4.695019 -0.748141 3.094645 0.000000 0.000000 0.000000 0.100893 1.085781 -0.257370 -1.036709 -1.755780 0.365854 2.012409 -0.160353 -0.108306 -0.491979 1.488975 0.419148 0.000000 0.000000 0.000000 0.000000 0.000000 0.000000 -0.000000 0.000000 0.000000 -0.000000 0.000000 0.000000 -6.252484 -4.365143 -5.350177 -0.742652 11.119623 3.812476 0.000000 0.000000 0.000000 0.000000 0.000000 0.000000 -0.362087 1.650338 -33.299063 0.991529 -1.144762 0.196696 -0.000000 0.000000 0.000000 0.000000 0.000000 0.000000 -0.162000 0.149186 -33.115416 -0.000000 0.000000 0.000000 -3.635700 5.851262 4.307881 0.000000 0.000000 0.000000
-0.054801 67.728759 311.353648 0.283192 -0.046790 33.243371 -0.211198 0.194377 -33.242898 -0.000000 0.000000 0.000000 -5.613490 -1.296629 3.929130 0.000000 0.000000 0.000000 0.259551 1.480333 -0.347274 -1.338941 -2.257866 0.460252 2.391617 -0.433615 -0.247598 -0.672059 1.928845 0.580615 0.000000 0.000000 0.000000 0.000000 0.000000 0.000000 -0.000000 0.000000 0.000000 -0.000000 0.000000 0.000000 -5.730919 -4.516235 -4.683778 -2.403155 11.294642 2.642399 0.000000 0.000000 0.000000 0.000000 0.000000 0.000000 -0.475627 1.986706 -33.464033 1.209158 -1.349273 0.240407 -0.000000 0.000000 0.000000 0.000000 0.000000 0.000000 -0.211198 0.194377 -33.242898 -0.000000 0.000000 0.000000 -3.754834 5.961319 4.504861 0.000000 0.000000 0.000000
-0.041362 67.740399 311.367296 0.346075 -0.056241 33.303315 -0.258363 0.237023 -33.302611 -0.000000 0.000000 0.000000 -6.196334 -1.982759 4.663855 0.000000 0.000000 0.000000 0.482115 1.893596 -0.440998 -1.621062 -2.720382 0.543714 2.625194 -0.817368 -0.435526 -0.866255 2.335500 0.751662 0.000000 0.000000 0.000000 0.000000 0.000000 0.000000 -0.000000 0.000000 0.000000 -0.000000 0.000000 0.000000 -3.811164 -4.014257 -2.681339 -4.575409 9.986634 0.141803 0.000000 0.000000 0.000000 0.000000 0.000000 0.000000 -0.592003 2.237539 -33.552181 2.174995 -1.742105 0.312684 -0.789236 0.263658 -0.013928 0.000000 0.000000 0.000000 -0.258363 0.237023 -33.302611 -0.000000 0.000000 0.000000 -3.411510 5.352548 4.196034 0.000000 0.000000 0.000000
